<mxfile host="app.diagrams.net" modified="2024-02-19T02:30:09.774Z" agent="Mozilla/5.0 (Windows NT 10.0; Win64; x64) AppleWebKit/537.36 (KHTML, like Gecko) Chrome/121.0.0.0 Safari/537.36 Edg/121.0.0.0" etag="CWy7ceEtSewb9RnYtDgG" version="23.1.5" type="github">
  <diagram name="第 1 页" id="AoOf4cAo6hxpojBgpVWL">
    <mxGraphModel dx="1386" dy="785" grid="1" gridSize="10" guides="1" tooltips="1" connect="1" arrows="1" fold="1" page="1" pageScale="1" pageWidth="827" pageHeight="1169" math="0" shadow="0">
      <root>
        <mxCell id="0" />
        <mxCell id="1" parent="0" />
        <mxCell id="k8GHYlcRXOUzm3cXHB4k-1" value="hit" style="ellipse;aspect=fixed;fillColor=#bfccdf;strokeColor=#6c8ebf;align=center;spacing=0;fontSize=16;" vertex="1" parent="1">
          <mxGeometry x="510" y="100" width="50" height="50" as="geometry" />
        </mxCell>
        <mxCell id="k8GHYlcRXOUzm3cXHB4k-2" value="" style="endArrow=classic;html=1;rounded=0;exitX=0.5;exitY=1;exitDx=0;exitDy=0;entryX=0.5;entryY=0;entryDx=0;entryDy=0;" edge="1" parent="1" source="k8GHYlcRXOUzm3cXHB4k-1" target="k8GHYlcRXOUzm3cXHB4k-4">
          <mxGeometry width="50" height="50" relative="1" as="geometry">
            <mxPoint x="580" y="380" as="sourcePoint" />
            <mxPoint x="250" y="210" as="targetPoint" />
          </mxGeometry>
        </mxCell>
        <mxCell id="k8GHYlcRXOUzm3cXHB4k-3" value="cog" style="ellipse;aspect=fixed;fillColor=#fff2cc;strokeColor=#d6b656;align=center;spacing=0;fontSize=16;" vertex="1" parent="1">
          <mxGeometry x="410" y="460" width="50" height="50" as="geometry" />
        </mxCell>
        <mxCell id="k8GHYlcRXOUzm3cXHB4k-4" value="hot" style="ellipse;aspect=fixed;fillColor=#bfccdf;strokeColor=#6c8ebf;align=center;spacing=0;fontSize=16;" vertex="1" parent="1">
          <mxGeometry x="510" y="200" width="50" height="50" as="geometry" />
        </mxCell>
        <mxCell id="k8GHYlcRXOUzm3cXHB4k-5" value="dot" style="ellipse;aspect=fixed;fillColor=#bfccdf;strokeColor=#6c8ebf;align=center;spacing=0;fontSize=16;" vertex="1" parent="1">
          <mxGeometry x="410" y="280" width="50" height="50" as="geometry" />
        </mxCell>
        <mxCell id="k8GHYlcRXOUzm3cXHB4k-6" value="lot" style="ellipse;aspect=fixed;fillColor=#bfccdf;strokeColor=#6c8ebf;align=center;spacing=0;fontSize=16;" vertex="1" parent="1">
          <mxGeometry x="620" y="280" width="50" height="50" as="geometry" />
        </mxCell>
        <mxCell id="k8GHYlcRXOUzm3cXHB4k-7" value="" style="endArrow=classic;html=1;rounded=0;entryX=0.5;entryY=0;entryDx=0;entryDy=0;exitX=0;exitY=1;exitDx=0;exitDy=0;" edge="1" parent="1" source="k8GHYlcRXOUzm3cXHB4k-4" target="k8GHYlcRXOUzm3cXHB4k-5">
          <mxGeometry width="50" height="50" relative="1" as="geometry">
            <mxPoint x="120" y="260" as="sourcePoint" />
            <mxPoint x="170" y="210" as="targetPoint" />
          </mxGeometry>
        </mxCell>
        <mxCell id="k8GHYlcRXOUzm3cXHB4k-8" value="" style="endArrow=classic;html=1;rounded=0;exitX=1;exitY=1;exitDx=0;exitDy=0;entryX=0.5;entryY=0;entryDx=0;entryDy=0;" edge="1" parent="1" source="k8GHYlcRXOUzm3cXHB4k-4" target="k8GHYlcRXOUzm3cXHB4k-6">
          <mxGeometry width="50" height="50" relative="1" as="geometry">
            <mxPoint x="320" y="290" as="sourcePoint" />
            <mxPoint x="370" y="240" as="targetPoint" />
          </mxGeometry>
        </mxCell>
        <mxCell id="k8GHYlcRXOUzm3cXHB4k-9" value="dog" style="ellipse;aspect=fixed;fillColor=#bfccdf;strokeColor=#6c8ebf;align=center;spacing=0;fontSize=16;" vertex="1" parent="1">
          <mxGeometry x="410" y="364" width="50" height="50" as="geometry" />
        </mxCell>
        <mxCell id="k8GHYlcRXOUzm3cXHB4k-10" value="" style="endArrow=classic;html=1;rounded=0;exitX=0.5;exitY=1;exitDx=0;exitDy=0;entryX=0.5;entryY=0;entryDx=0;entryDy=0;" edge="1" parent="1" source="k8GHYlcRXOUzm3cXHB4k-5" target="k8GHYlcRXOUzm3cXHB4k-9">
          <mxGeometry width="50" height="50" relative="1" as="geometry">
            <mxPoint x="180" y="430" as="sourcePoint" />
            <mxPoint x="230" y="380" as="targetPoint" />
          </mxGeometry>
        </mxCell>
        <mxCell id="k8GHYlcRXOUzm3cXHB4k-11" value="log" style="ellipse;aspect=fixed;fillColor=#bfccdf;strokeColor=#6c8ebf;align=center;spacing=0;fontSize=16;" vertex="1" parent="1">
          <mxGeometry x="620" y="364" width="50" height="50" as="geometry" />
        </mxCell>
        <mxCell id="k8GHYlcRXOUzm3cXHB4k-12" value="" style="endArrow=classic;html=1;rounded=0;exitX=0.5;exitY=1;exitDx=0;exitDy=0;entryX=0.5;entryY=0;entryDx=0;entryDy=0;" edge="1" parent="1" source="k8GHYlcRXOUzm3cXHB4k-6" target="k8GHYlcRXOUzm3cXHB4k-11">
          <mxGeometry width="50" height="50" relative="1" as="geometry">
            <mxPoint x="340" y="430" as="sourcePoint" />
            <mxPoint x="390" y="380" as="targetPoint" />
          </mxGeometry>
        </mxCell>
        <mxCell id="k8GHYlcRXOUzm3cXHB4k-13" value="" style="endArrow=classic;html=1;rounded=0;exitX=0.5;exitY=1;exitDx=0;exitDy=0;entryX=0.5;entryY=0;entryDx=0;entryDy=0;" edge="1" parent="1" source="k8GHYlcRXOUzm3cXHB4k-9" target="k8GHYlcRXOUzm3cXHB4k-3">
          <mxGeometry width="50" height="50" relative="1" as="geometry">
            <mxPoint x="130" y="530" as="sourcePoint" />
            <mxPoint x="180" y="480" as="targetPoint" />
          </mxGeometry>
        </mxCell>
        <mxCell id="k8GHYlcRXOUzm3cXHB4k-14" value="cog" style="ellipse;aspect=fixed;fillColor=#fff2cc;strokeColor=#d6b656;align=center;spacing=0;fontSize=16;" vertex="1" parent="1">
          <mxGeometry x="620" y="460" width="50" height="50" as="geometry" />
        </mxCell>
        <mxCell id="k8GHYlcRXOUzm3cXHB4k-15" value="" style="endArrow=classic;html=1;rounded=0;exitX=0.5;exitY=1;exitDx=0;exitDy=0;" edge="1" parent="1" source="k8GHYlcRXOUzm3cXHB4k-11" target="k8GHYlcRXOUzm3cXHB4k-14">
          <mxGeometry width="50" height="50" relative="1" as="geometry">
            <mxPoint x="360" y="520" as="sourcePoint" />
            <mxPoint x="410" y="470" as="targetPoint" />
          </mxGeometry>
        </mxCell>
      </root>
    </mxGraphModel>
  </diagram>
</mxfile>
